<svg id="Group_17189" data-name="Group 17189" xmlns="http://www.w3.org/2000/svg" width="24" height="24" viewBox="0 0 24 24">
  <path id="Path_6511" data-name="Path 6511" d="M0,0H24V24H0Z" fill="none"/>
  <g id="noun-earth-2160748" transform="translate(-85.63 -15.63)">
    <path id="Path_6694" data-name="Path 6694" d="M97.63,17.5A10.4,10.4,0,0,0,87.5,27.63a10.13,10.13,0,1,0,20.261,0A10.4,10.4,0,0,0,97.63,17.5Zm7.238,16.065-.556-.417-.623-1.247-.323-1.288-.338-2.026h0a.338.338,0,0,0-.182-.247l-1.351-.675a.335.335,0,0,0-.233-.025l-1.216.3-1.435-.861-.288-1.73.826-1.1h1.38l.914.914h0a.337.337,0,0,0,.3.092l1.657-.331H105.4a.338.338,0,0,0,.211-.074l.789-.631h0a8.926,8.926,0,0,1,.688,3.407,9.322,9.322,0,0,1-2.217,5.935Zm-.439-12.359-.517.646-2.834-.63h0a.345.345,0,0,0-.2.016l-1.562.625-1.025-.41,1.2-.958,1.642-.657h0a.343.343,0,0,0,.113-.075l.549-.549a10.008,10.008,0,0,1,2.636,1.99Zm-12.475-1.02.823.329a.339.339,0,0,0,.125.024h2.289l-.23,1.148-.9.6a.337.337,0,0,0-.133.174l-.323.97-.55.824h-.832a.341.341,0,0,0-.187.057l-2.026,1.351a.341.341,0,0,0-.115.13l-.338.675a.338.338,0,0,0-.018.258l.338,1.013a.338.338,0,0,0,.238.221l1.2.3.024.048H88.419a1,1,0,0,0-.229-.172c-.01-.166-.016-.335-.016-.5a9.57,9.57,0,0,1,3.779-7.445ZM94.591,32.7H93.5L93.23,31.6h0a.338.338,0,0,0-.089-.157l-.817-.817.522-.783a.367.367,0,0,0,.04-.081l.279-.837.954-.238L95,29.859a.338.338,0,0,0,.458.078l.865-.577,1.249.5L97.3,30.925a.338.338,0,0,0,.27.415l1.746.291v.389H97.968a.338.338,0,0,0-.27.135l-1.013,1.351a.338.338,0,0,0-.011.39l.522.783-1.155,1.155a.338.338,0,0,0-.092.172l-.178.878a9.137,9.137,0,0,1-1.173-.342l.231-.231a.338.338,0,0,0,.1-.238V33.033a.338.338,0,0,0-.338-.338Zm3.039,4.39A8.64,8.64,0,0,1,96.437,37l.154-.76,1.279-1.279a.338.338,0,0,0,.042-.426l-.543-.814.768-1.024h1.52a.338.338,0,0,0,.338-.338V31.345a.338.338,0,0,0-.282-.333l-1.665-.278.249-1h0a.338.338,0,0,0-.2-.4L96.4,28.667a.338.338,0,0,0-.313.034l-.747.5-.821-1.1a.338.338,0,0,0-.352-.125l-1.351.338a.338.338,0,0,0-.238.221l-.323.97-.65.975a.338.338,0,0,0,.042.426l.946.947.315,1.26a.338.338,0,0,0,.329.256h1.013v2.562l-.333.333a9.858,9.858,0,0,1-5.638-7.285H91.89a.338.338,0,0,0,.3-.489l-.338-.675a.338.338,0,0,0-.22-.177l-1.171-.293-.236-.7.236-.47,1.866-1.244h.912a.338.338,0,0,0,.281-.15l.675-1.013a.366.366,0,0,0,.04-.081l.3-.9.917-.611h0a.338.338,0,0,0,.144-.215l.338-1.688a.338.338,0,0,0-.331-.4H92.968l-.36-.144a9.169,9.169,0,0,1,5.023-1.544,8.937,8.937,0,0,1,3.516.734l-.329.329-1.624.65h0a.355.355,0,0,0-.085.05l-1.688,1.351a.338.338,0,0,0,.085.577l1.688.675a.339.339,0,0,0,.251,0l1.591-.637,2.938.653a.359.359,0,0,0,.073.008.338.338,0,0,0,.264-.127l.576-.721a9.873,9.873,0,0,1,1.223,1.871l-.831.665h-1.908a.339.339,0,0,0-.068.007l-1.511.3-.885-.885h0a.337.337,0,0,0-.237-.1H98.981a.338.338,0,0,0-.27.135L97.7,25.064a.338.338,0,0,0-.063.258l.338,2.026a.338.338,0,0,0,.159.234l1.688,1.013a.338.338,0,0,0,.256.038l1.23-.307,1.086.543.315,1.883.338,1.351a.332.332,0,0,0,.025.069l.675,1.351a.339.339,0,0,0,.1.119l.572.429h0a9.462,9.462,0,0,1-6.788,3.015Z" fill="#fff"/>
  </g>
</svg>
