<svg id="factory-line" xmlns="http://www.w3.org/2000/svg" width="24" height="24" viewBox="0 0 24 24">
  <rect id="Rectangle_4038" data-name="Rectangle 4038" width="24" height="24" fill="rgba(255,255,255,0)"/>
  <g id="clarityFactoryLine0" transform="translate(1.354 1.826)">
    <path id="Path_7655" data-name="Path 7655" d="M23.313,5.861a.677.677,0,0,0-.677.041L16.222,10.2V6.464a.677.677,0,0,0-1.111-.521L9.775,10.351H7.418V4a.677.677,0,0,0-.528-.677l-2.709-.61a.679.679,0,0,0-.826.684v6.955H2.677A.677.677,0,0,0,2,11.029V21.864a.677.677,0,0,0,.677.677H22.994a.677.677,0,0,0,.677-.677V6.464A.677.677,0,0,0,23.313,5.861ZM4.709,4.256l1.354.3v5.8H4.709ZM22.317,21.187H3.354V11.706h6.657a.677.677,0,0,0,.433-.156l4.422-3.657v3.576a.677.677,0,0,0,1.056.562l6.393-4.294Z" transform="translate(-2 -2.696)" fill="#fff"/>
    <path id="Path_7656" data-name="Path 7656" d="M6,17.99h5.418v1.354H6ZM6,20.7h5.418v1.354H6Zm0,2.709h5.418v1.354H6Zm8.8-4.741h1.354V20.7H14.8Zm0,4.063h1.354v2.032H14.8Zm2.709-4.063h1.354V20.7H17.513Zm0,4.063h1.354v2.032H17.513Zm2.709-4.063h1.354V20.7H20.222Zm0,4.063h1.354v2.032H20.222Z" transform="translate(-3.291 -7.632)" fill="#fff"/>
  </g>
</svg>
