<svg id="Group_17190" data-name="Group 17190" xmlns="http://www.w3.org/2000/svg" width="24" height="24" viewBox="0 0 24 24">
  <path id="Path_6511" data-name="Path 6511" d="M0,0H24V24H0Z" fill="none"/>
  <g id="noun-address-5689145" transform="translate(-94.613 -58.183)">
    <path id="Path_6685" data-name="Path 6685" d="M96.607,74.829h1.429a.357.357,0,0,0,0-.715H96.965v-5h16.795a.357.357,0,1,0,0-.715H113.4v-.715h.357a.357.357,0,0,0,.357-.357V61.607a.357.357,0,0,0-.357-.357H96.607a.357.357,0,0,0-.357.357v5.717a.357.357,0,0,0,.357.357h.357V68.4h-.357a.357.357,0,0,0-.357.357v5.717a.357.357,0,0,0,.357.357Zm.357-12.864H113.4v5H96.965Zm.715,5.717h15.008V68.4H97.679Z" fill="#fff"/>
    <path id="Path_6686" data-name="Path 6686" d="M201.607,376.965h7.147a.357.357,0,0,0,0-.715h-7.147a.357.357,0,1,0,0,.715Z" transform="translate(-100.712 -302.136)" fill="#fff"/>
    <path id="Path_6687" data-name="Path 6687" d="M149.822,115.895a1.073,1.073,0,1,0-.758-.314,1.072,1.072,0,0,0,.758.314Zm0-1.429a.357.357,0,1,1-.357.357A.357.357,0,0,1,149.822,114.466Z" transform="translate(-50.356 -50.357)" fill="#fff"/>
    <path id="Path_6688" data-name="Path 6688" d="M149.822,288.749a1.073,1.073,0,1,0,.758.314,1.072,1.072,0,0,0-.758-.314Zm0,1.429a.357.357,0,1,1,.357-.357A.357.357,0,0,1,149.822,290.179Z" transform="translate(-50.356 -218.209)" fill="#fff"/>
    <path id="Path_6689" data-name="Path 6689" d="M219.107,131.965h10.005a.357.357,0,1,0,0-.715H219.107a.357.357,0,0,0,0,.715Z" transform="translate(-117.497 -67.141)" fill="#fff"/>
    <path id="Path_6690" data-name="Path 6690" d="M225.539,306.25h-6.432a.357.357,0,1,0,0,.715h6.432a.357.357,0,1,0,0-.715Z" transform="translate(-117.497 -234.995)" fill="#fff"/>
    <path id="Path_6691" data-name="Path 6691" d="M415.181,271.25a3.935,3.935,0,0,0-3.931,3.931c0,3.026,3.594,5.217,3.747,5.309a.357.357,0,0,0,.367,0c.153-.092,3.747-2.283,3.747-5.309a3.935,3.935,0,0,0-3.931-3.931Zm0,8.508c-.708-.475-3.216-2.316-3.216-4.577a3.216,3.216,0,0,1,6.432,0C418.4,277.442,415.889,279.283,415.181,279.758Z" transform="translate(-302.136 -201.424)" fill="#fff"/>
    <path id="Path_6692" data-name="Path 6692" d="M465.537,323.75a1.789,1.789,0,1,0,1.263.524A1.788,1.788,0,0,0,465.537,323.75Zm0,2.859a1.073,1.073,0,1,1,.758-.314A1.072,1.072,0,0,1,465.537,326.609Z" transform="translate(-352.492 -251.78)" fill="#fff"/>
    <path id="Path_6693" data-name="Path 6693" d="M166.965,376.607a.357.357,0,1,1-.357-.357.357.357,0,0,1,.357.357" transform="translate(-67.141 -302.136)" fill="#fff"/>
  </g>
</svg>
