<svg id="Group_17186" data-name="Group 17186" xmlns="http://www.w3.org/2000/svg" width="24" height="24" viewBox="0 0 24 24">
  <path id="Path_6511" data-name="Path 6511" d="M0,0H24V24H0Z" fill="none"/>
  <g id="noun-organize-5692513" transform="translate(2.068 1.1)">
    <path id="Path_6629" data-name="Path 6629" d="M113.785,99.256h-12.17a1.871,1.871,0,0,1-1.869-1.869V82.278a1.871,1.871,0,0,1,1.869-1.869h2.79a.247.247,0,1,1,0,.493h-2.79a1.378,1.378,0,0,0-1.376,1.376V97.386a1.377,1.377,0,0,0,1.376,1.376h12.17a1.378,1.378,0,0,0,1.376-1.376V82.277a1.378,1.378,0,0,0-1.376-1.376H111a.247.247,0,0,1,0-.493h2.79a1.871,1.871,0,0,1,1.869,1.869V97.386a1.872,1.872,0,0,1-1.869,1.869Z" transform="translate(-99.746 -77.455)" fill="#444"/>
    <path id="Path_6630" data-name="Path 6630" d="M157.809,141.671H146.044a.247.247,0,0,1-.247-.247v-14.7a.247.247,0,0,1,.247-.247h2.492a.247.247,0,1,1,0,.493h-2.246v14.21h11.271v-14.21h-2.246a.247.247,0,0,1,0-.493h2.492a.247.247,0,0,1,.247.247v14.7A.247.247,0,0,1,157.809,141.671Z" transform="translate(-143.972 -121.696)" fill="#444"/>
    <path id="Path_6631" data-name="Path 6631" d="M215.7,11.664h-6.78a.247.247,0,0,1-.247-.247V9.591a1.583,1.583,0,0,1,1.581-1.581h.032c0-.029,0-.057,0-.085a2.026,2.026,0,1,1,4.051,0c0,.028,0,.057,0,.085h.032a1.583,1.583,0,0,1,1.581,1.581v1.827a.246.246,0,0,1-.246.246Zm-6.533-.493h6.287V9.591A1.089,1.089,0,0,0,214.37,8.5h-.308a.247.247,0,0,1-.242-.293,1.532,1.532,0,1,0-3.011,0,.247.247,0,0,1-.242.293h-.308a1.089,1.089,0,0,0-1.088,1.088Z" transform="translate(-204.36 -5.899)" fill="#444"/>
    <path id="Path_6632" data-name="Path 6632" d="M274.1,31.767a1.087,1.087,0,1,1,1.087-1.087A1.088,1.088,0,0,1,274.1,31.767Zm0-1.68a.593.593,0,1,0,.593.593A.594.594,0,0,0,274.1,30.087Z" transform="translate(-266.148 -28.655)" fill="#444"/>
    <path id="Path_6633" data-name="Path 6633" d="M204.829,199.792h-1.166a.582.582,0,0,1-.581-.581v-1.341a.581.581,0,0,1,.581-.581h1.166a.581.581,0,0,1,.581.581v1.341A.581.581,0,0,1,204.829,199.792Zm-1.166-2.009a.088.088,0,0,0-.087.087v1.341a.088.088,0,0,0,.087.087h1.166a.088.088,0,0,0,.087-.087V197.87a.088.088,0,0,0-.087-.087Z" transform="translate(-198.986 -189.704)" fill="#444"/>
    <path id="Path_6634" data-name="Path 6634" d="M286.59,205.618H282.5a.247.247,0,1,1,0-.493h4.086a.247.247,0,1,1,0,.493Z" transform="translate(-275.023 -197.228)" fill="#444"/>
    <path id="Path_6635" data-name="Path 6635" d="M285.237,240.618h-2.725a.247.247,0,0,1,0-.493h2.725a.247.247,0,0,1,0,.493Z" transform="translate(-275.031 -230.841)" fill="#444"/>
    <path id="Path_6636" data-name="Path 6636" d="M204.829,296.682h-1.166a.582.582,0,0,1-.581-.581v-1.341a.581.581,0,0,1,.581-.581h1.166a.581.581,0,0,1,.581.581V296.1A.582.582,0,0,1,204.829,296.682Zm-1.166-2.009a.088.088,0,0,0-.087.087V296.1a.088.088,0,0,0,.087.087h1.166a.088.088,0,0,0,.087-.087V294.76a.088.088,0,0,0-.087-.087Z" transform="translate(-198.986 -282.754)" fill="#444"/>
    <path id="Path_6637" data-name="Path 6637" d="M286.59,302.508H282.5a.247.247,0,1,1,0-.493h4.086a.247.247,0,0,1,0,.493Z" transform="translate(-275.023 -290.278)" fill="#444"/>
    <path id="Path_6638" data-name="Path 6638" d="M285.237,337.508h-2.725a.247.247,0,0,1,0-.493h2.725a.247.247,0,0,1,0,.493Z" transform="translate(-275.031 -323.891)" fill="#444"/>
    <path id="Path_6639" data-name="Path 6639" d="M204.829,393.562h-1.166a.582.582,0,0,1-.581-.581v-1.341a.581.581,0,0,1,.581-.581h1.166a.581.581,0,0,1,.581.581v1.341A.581.581,0,0,1,204.829,393.562Zm-1.166-2.008a.088.088,0,0,0-.087.087v1.341a.088.088,0,0,0,.087.087h1.166a.088.088,0,0,0,.087-.087v-1.341a.088.088,0,0,0-.087-.087Z" transform="translate(-198.986 -375.794)" fill="#444"/>
    <path id="Path_6640" data-name="Path 6640" d="M286.59,399.4H282.5a.247.247,0,1,1,0-.493h4.086a.247.247,0,1,1,0,.493Z" transform="translate(-275.023 -383.328)" fill="#444"/>
    <path id="Path_6641" data-name="Path 6641" d="M285.237,434.388h-2.725a.247.247,0,0,1,0-.493h2.725a.247.247,0,1,1,0,.493Z" transform="translate(-275.031 -416.931)" fill="#444"/>
    <path id="Path_6642" data-name="Path 6642" d="M522.364,133.424h-2.738a.247.247,0,0,1-.247-.247V119.131a.247.247,0,0,1,.247-.247h2.738a.247.247,0,0,1,.247.247v14.046A.247.247,0,0,1,522.364,133.424Zm-2.491-.493h2.245V119.378h-2.245Z" transform="translate(-502.747 -114.406)" fill="#444"/>
    <path id="Path_6643" data-name="Path 6643" d="M520.981,476.54a.246.246,0,0,1-.221-.138l-1.369-2.784a.246.246,0,0,1,.442-.217l1.148,2.333,1.148-2.333a.246.246,0,0,1,.442.217L521.2,476.4A.243.243,0,0,1,520.981,476.54Z" transform="translate(-502.733 -454.739)" fill="#444"/>
    <path id="Path_6644" data-name="Path 6644" d="M537.33,506.808h-1.45a.247.247,0,0,1,0-.493h1.45a.247.247,0,0,1,0,.493Z" transform="translate(-518.357 -486.481)" fill="#444"/>
    <path id="Path_6645" data-name="Path 6645" d="M522.364,84.133a.247.247,0,0,1-.247-.247V82.432a.247.247,0,1,1,.493,0v1.454a.247.247,0,0,1-.247.247Zm-2.738,0a.247.247,0,0,1-.247-.247V82.432a.247.247,0,0,1,.493,0v1.454a.247.247,0,0,1-.247.247Z" transform="translate(-502.747 -79.162)" fill="#444"/>
    <path id="Path_6646" data-name="Path 6646" d="M522.364,35.5h-2.738a.247.247,0,0,1-.247-.247v-.973a1.222,1.222,0,0,1,1.22-1.22h.791a1.222,1.222,0,0,1,1.22,1.22v.974a.248.248,0,0,1-.247.246Zm-2.491-.493h2.245v-.727a.728.728,0,0,0-.727-.727H520.6a.728.728,0,0,0-.727.727Z" transform="translate(-502.747 -31.986)" fill="#444"/>
    <path id="Path_6647" data-name="Path 6647" d="M554.164,189.855a.247.247,0,0,1-.247-.247v-9.187a.247.247,0,1,1,.493,0v9.187A.247.247,0,0,1,554.164,189.855Z" transform="translate(-535.916 -173.267)" fill="#444"/>
  </g>
</svg>
